<svg width="516" height="429" viewBox="0 0 516 429" fill="none" xmlns="http://www.w3.org/2000/svg">
<path d="M516 89.766H150.975V310.88H516V89.766Z" fill="#F0F0F0"/>
<path d="M509.858 42.3852H1.1775C0.865208 42.3852 0.565723 42.2612 0.344899 42.0404C0.124075 41.8196 0 41.5201 0 41.2079C0 40.8956 0.124075 40.5961 0.344899 40.3753C0.565723 40.1545 0.865208 40.0305 1.1775 40.0305H509.858C510.17 40.0305 510.469 40.1545 510.69 40.3753C510.911 40.5961 511.035 40.8956 511.035 41.2079C511.035 41.5201 510.911 41.8196 510.69 42.0404C510.469 42.2612 510.17 42.3852 509.858 42.3852Z" fill="#CACACA"/>
<path d="M27.6806 25.9021C34.834 25.9021 40.6331 20.1037 40.6331 12.951C40.6331 5.79838 34.834 0 27.6806 0C20.5271 0 14.7281 5.79838 14.7281 12.951C14.7281 20.1037 20.5271 25.9021 27.6806 25.9021Z" fill="#3F3D56"/>
<path d="M72.4255 25.9021C79.579 25.9021 85.378 20.1037 85.378 12.951C85.378 5.79838 79.579 0 72.4255 0C65.2721 0 59.473 5.79838 59.473 12.951C59.473 20.1037 65.2721 25.9021 72.4255 25.9021Z" fill="#3F3D56"/>
<path d="M117.171 25.9021C124.324 25.9021 130.123 20.1037 130.123 12.951C130.123 5.79838 124.324 0 117.171 0C110.017 0 104.218 5.79838 104.218 12.951C104.218 20.1037 110.017 25.9021 117.171 25.9021Z" fill="#3F3D56"/>
<path d="M359.409 197.627L337.189 174.73C336.705 174.242 336.125 173.857 335.486 173.601C334.848 173.344 334.163 173.221 333.475 173.238H333.409C332.721 173.221 332.036 173.344 331.397 173.601C330.759 173.857 330.179 174.242 329.694 174.73L307.475 197.627C306.525 198.515 305.967 199.744 305.923 201.044C305.879 202.343 306.354 203.607 307.242 204.557C307.317 204.637 307.394 204.715 307.475 204.79C308.491 205.741 309.831 206.27 311.222 206.27C312.614 206.27 313.953 205.741 314.97 204.79L328.136 191.028V226.51C328.197 227.876 328.782 229.166 329.771 230.111C330.759 231.056 332.074 231.583 333.442 231.583C334.809 231.583 336.124 231.056 337.113 230.111C338.101 229.166 338.687 227.876 338.748 226.51V191.028L351.914 204.79C352.93 205.741 354.27 206.27 355.662 206.27C357.053 206.27 358.393 205.741 359.409 204.79C360.359 203.902 360.917 202.673 360.961 201.373C361.004 200.074 360.53 198.81 359.642 197.86C359.567 197.78 359.489 197.702 359.409 197.627Z" fill="white"/>
<path d="M333.488 254.878C323.174 254.878 313.092 251.82 304.517 246.09C295.941 240.361 289.257 232.218 285.311 222.69C281.364 213.163 280.331 202.679 282.343 192.565C284.355 182.451 289.322 173.16 296.614 165.868C303.907 158.576 313.199 153.61 323.314 151.598C333.43 149.587 343.915 150.619 353.443 154.566C362.972 158.512 371.116 165.195 376.846 173.769C382.576 182.344 385.634 192.425 385.634 202.737C385.618 216.561 380.119 229.814 370.343 239.589C360.567 249.364 347.313 254.862 333.488 254.878ZM333.488 152.528C323.556 152.528 313.847 155.472 305.59 160.99C297.332 166.507 290.896 174.348 287.095 183.523C283.294 192.697 282.3 202.793 284.237 212.532C286.175 222.272 290.957 231.219 297.98 238.241C305.003 245.262 313.95 250.044 323.691 251.982C333.432 253.919 343.528 252.925 352.704 249.125C361.88 245.324 369.722 238.889 375.24 230.632C380.758 222.375 383.703 212.668 383.703 202.737C383.688 189.425 378.392 176.663 368.978 167.25C359.564 157.838 346.801 152.543 333.488 152.528Z" fill="white"/>
<path d="M362.499 428.986H21.5737C18.0891 428.977 15.2647 423.201 15.2603 416.069V243.05C15.2603 235.92 18.0891 230.146 21.5737 230.134H362.499C365.984 230.143 368.808 235.919 368.812 243.05V416.068C368.808 423.198 365.979 428.977 362.499 428.986Z" fill="white"/>
<path d="M131.216 328.445C147.681 328.445 161.028 315.099 161.028 298.636C161.028 282.173 147.681 268.828 131.216 268.828C114.751 268.828 101.404 282.173 101.404 298.636C101.404 315.099 114.751 328.445 131.216 328.445Z" fill="#3F3D56"/>
<path d="M224.703 390.494H78.4552C78.2723 390.496 78.0895 390.481 77.9093 390.449L147.081 270.655C147.503 269.909 148.115 269.288 148.856 268.856C149.597 268.424 150.439 268.196 151.296 268.196C152.153 268.196 152.995 268.424 153.736 268.856C154.477 269.288 155.089 269.909 155.511 270.655L201.932 351.047L204.157 354.893L224.703 390.494Z" fill="#6C63FF"/>
<path d="M306.129 390.495H179.636L204.146 354.897L205.91 352.333L237.851 305.94C238.416 305.23 239.124 304.647 239.929 304.229C240.734 303.811 241.618 303.567 242.524 303.513C243.429 303.459 244.336 303.596 245.185 303.916C246.034 304.235 246.806 304.73 247.452 305.367C247.617 305.548 247.77 305.739 247.911 305.94L306.129 390.495Z" fill="#6C63FF"/>
<path d="M362.499 428.986H21.5737C18.0891 428.977 15.2647 423.201 15.2603 416.069V243.05C15.2603 235.92 18.0891 230.146 21.5737 230.134H362.499C365.984 230.143 368.808 235.919 368.812 243.05V416.068C368.808 423.198 365.979 428.977 362.499 428.986ZM21.5737 235.3C19.4821 235.3 17.788 238.773 17.785 243.05V416.068C17.785 420.345 19.482 423.813 21.5737 423.818H362.499C364.591 423.818 366.285 420.347 366.288 416.068V243.05C366.288 238.773 364.591 235.305 362.499 235.3L21.5737 235.3Z" fill="#E6E6E6"/>
</svg>
